<?xml version="1.0" standalone="no"?>
<!DOCTYPE svg PUBLIC "-//W3C//DTD SVG 20010904//EN"
 "http://www.w3.org/TR/2001/REC-SVG-20010904/DTD/svg10.dtd">
<svg version="1.0" xmlns="http://www.w3.org/2000/svg"
 width="100.000000pt" height="100.000000pt" viewBox="0 0 100.000000 100.000000"
 preserveAspectRatio="xMidYMid meet">
<metadata>
Created by potrace 1.16, written by Peter Selinger 2001-2019
</metadata>
<g transform="translate(0.000000,100.000000) scale(0.100000,-0.100000)"
fill="#000000" stroke="none">
<path d="M40 923 c0 -13 39 -111 52 -133 22 -35 44 -24 65 33 19 48 23 52 54
54 19 0 24 -1 13 -4 -12 -2 -29 -12 -38 -22 -15 -16 -15 -20 0 -49 15 -31 46
-43 59 -22 3 6 -1 10 -9 10 -9 0 -16 5 -16 11 0 16 21 6 38 -19 13 -20 13 -22
-5 -22 -11 0 -28 -9 -38 -20 -10 -11 -21 -17 -26 -15 -15 10 -24 -21 -20 -80
1 -33 7 -61 12 -63 5 -2 9 -10 9 -18 0 -8 7 -14 15 -14 11 0 15 11 15 38 1 35
1 36 16 17 8 -11 20 -21 27 -21 7 -1 18 -2 25 -3 6 0 12 -8 12 -16 0 -8 7 -15
15 -15 10 0 15 11 16 38 1 20 3 29 6 20 2 -10 9 -18 14 -18 5 0 9 -7 9 -15 0
-17 -1 -17 57 -20 32 -3 43 1 46 13 3 12 5 10 6 -5 0 -13 6 -23 11 -23 6 0 10
-7 10 -16 0 -23 24 -11 28 13 3 18 8 20 35 13 85 -19 102 -57 40 -89 -21 -10
-53 -22 -72 -26 -18 -4 -45 -20 -60 -35 -40 -44 -66 -47 -101 -11 -18 17 -30
24 -30 16 0 -8 -14 -16 -32 -19 -112 -19 -161 -25 -226 -31 l-72 -7 0 -135 0
-136 48 6 c111 13 434 90 562 134 181 62 301 142 320 215 12 44 3 88 -26 119
-14 16 -13 21 5 60 12 23 19 45 16 47 -3 3 -5 0 -5 -6 0 -6 -12 -17 -27 -24
-24 -12 -28 -19 -25 -48 l2 -35 -14 25 c-14 25 -52 42 -158 71 -30 8 -43 16
-35 21 9 6 8 8 -3 8 -8 1 -44 3 -80 4 -65 3 -186 31 -205 47 -16 15 11 31 67
41 160 26 337 47 441 53 90 5 117 10 117 21 0 10 -13 14 -47 14 -60 0 -270
-18 -302 -25 -22 -6 -23 -4 -18 24 5 24 3 29 -8 25 -10 -4 -13 -14 -9 -28 5
-20 0 -22 -88 -34 -121 -16 -118 -16 -118 13 0 35 -45 84 -62 67 -9 -9 -9 -12
1 -12 8 0 11 -6 7 -15 -3 -8 -2 -15 3 -15 5 0 11 -13 13 -30 4 -25 1 -30 -15
-30 -16 0 -18 5 -14 27 5 27 -19 83 -35 83 -14 0 -9 -98 5 -103 9 -3 9 -7 0
-17 -18 -19 -33 -2 -33 37 0 47 -37 83 -86 83 -24 0 -34 4 -34 16 0 29 -23 8
-39 -34 l-15 -42 -21 42 c-19 38 -45 62 -45 41z"/>
</g>
</svg>
